<svg version="1.2" baseProfile="tiny-ps" xmlns="http://www.w3.org/2000/svg" viewBox="0 0 247 247" width="247" height="247">
	<title>apoy-logo</title>
	<defs>
		<linearGradient id="grd1" gradientUnits="userSpaceOnUse"  x1="0.202" y1="-3.593" x2="246.19" y2="-3.593">
			<stop offset="0" stop-color="#ae81dc"  />
			<stop offset="1" stop-color="#5654ff"  />
		</linearGradient>
	</defs>
	<style>
		tspan { white-space:pre }
		.shp0 { fill: url(#grd1) } 
		.shp1 { fill: #ffffff } 
	</style>
	<g id="\315\274\262\343_1">
		<path id="&lt;Path&gt;" class="shp0" d="M246.19 123.4C246.19 191.33 191.12 246.39 123.2 246.39C55.27 246.39 0.2 191.33 0.2 123.4C0.2 55.47 55.27 0.41 123.2 0.41C191.12 0.41 246.19 55.47 246.19 123.4Z" />
		<g id="&lt;Group&gt;">
			<path id="&lt;Path&gt;" class="shp1" d="M198.85 93.02C197.5 92.5 195.97 92.86 195 93.93C163.1 129.41 146.24 148.07 144.42 149.89C141.69 152.61 140.59 153.78 136.11 151.82C131.64 149.85 128.04 148.81 123.68 148.81C119.31 148.81 115.72 149.85 111.24 151.82C106.77 153.78 105.67 152.61 102.94 149.89C101.12 148.07 84.26 129.41 52.35 93.93C51.38 92.86 49.85 92.5 48.51 93.02C47.16 93.54 46.27 94.83 46.27 96.28L46.27 190.71L81.03 190.71L81.03 147.31L69.83 134.83L69.83 182.41L60.51 182.41L60.51 117.79C63.13 120.72 66.24 124.18 69.83 128.18C73.19 131.94 77.13 136.32 81.03 140.66C90.21 150.87 99.21 160.86 100.25 161.89C102.43 164.08 103.74 163.43 109.13 161.68C114.51 159.94 116.26 158.92 123.68 158.92C131.1 158.92 132.84 159.94 138.23 161.68C143.61 163.43 144.93 164.08 147.11 161.89C148.15 160.86 157.15 150.87 166.32 140.66C170.23 136.32 174.16 131.94 177.53 128.18C181.12 124.18 184.22 120.72 186.84 117.79L186.84 182.41L177.53 182.41L177.53 134.83L166.32 147.31L166.32 190.71L201.08 190.71L201.08 96.28C201.08 94.83 200.19 93.54 198.85 93.02Z" />
			<path id="&lt;Path&gt;" class="shp1" d="M80.32 91.59C80.32 75.25 89.45 47.58 123.68 47.58C157.9 47.58 167.04 75.25 167.04 91.59L167.04 118.31L176.82 107.48L176.82 91.59C176.82 65.69 160.19 37.8 123.68 37.8C87.17 37.8 70.54 65.69 70.54 91.59L70.54 107.48L80.32 118.31L80.32 91.59Z" />
			<path id="&lt;Path&gt;" class="shp1" d="M101.68 96.75C101.68 102.21 105.16 106.64 109.46 106.64C113.75 106.64 117.24 102.21 117.24 96.75C117.24 91.29 113.75 86.87 109.46 86.87C105.16 86.87 101.68 91.29 101.68 96.75Z" />
			<path id="&lt;Path&gt;" class="shp1" d="M143.15 87.34L131.87 95.43L131.87 98.45L143.15 106.55L145.89 102.76L137.78 96.94L145.88 91.13L143.15 87.34Z" />
		</g>
		<g id="&lt;Group&gt;">
		</g>
	</g>
</svg>