<?xml version="1.0" standalone="no"?>
<!DOCTYPE svg PUBLIC "-//W3C//DTD SVG 1.1//EN" "http://www.w3.org/Graphics/SVG/1.1/DTD/svg11.dtd"><svg t="1652967760229"
  class="icon" viewBox="0 0 1024 1024" version="1.1" xmlns="http://www.w3.org/2000/svg" p-id="5089"
  xmlns:xlink="http://www.w3.org/1999/xlink" width="200" height="200">
  <defs>
    <style type="text/css">
      @font-face {
        font-family: feedback-iconfont;
        src: url("//at.alicdn.com/t/font_1031158_u69w8yhxdu.woff2?t=1630033759944") format("woff2"), url("//at.alicdn.com/t/font_1031158_u69w8yhxdu.woff?t=1630033759944") format("woff"), url("//at.alicdn.com/t/font_1031158_u69w8yhxdu.ttf?t=1630033759944") format("truetype");
      }
    </style>
  </defs>
  <path
    d="M497.664 971.434667A456.704 456.704 0 1 1 955.733333 514.730667a457.045333 457.045333 0 0 1-458.069333 456.704z m0-845.141334A388.437333 388.437333 0 1 0 887.466667 514.730667 388.778667 388.778667 0 0 0 497.664 126.293333z"
    fill="#e6e6e6" p-id="5090"></path>
  <path
    d="M571.392 716.8a34.133333 34.133333 0 0 1-23.893333-9.898667l-167.253334-166.912a34.133333 34.133333 0 0 1-9.898666-24.234666 34.133333 34.133333 0 0 1 9.898666-24.234667L546.133333 323.584a34.133333 34.133333 0 0 1 48.128 48.128l-143.018666 143.018667 143.018666 143.018666a34.133333 34.133333 0 0 1 0 48.128 34.133333 34.133333 0 0 1-22.869333 10.922667z"
    fill="#e6e6e6" p-id="5091"></path>
</svg>